<svg width="451" height="155" viewBox="0 0 451 155" fill="none" xmlns="http://www.w3.org/2000/svg">
<path d="M5.39 132V80.34H12.32L35.84 117.23V80.34H44.52V132H37.59L14.07 95.11V132H5.39ZM64.0686 132.42C60.6153 132.42 57.9319 131.463 56.0186 129.55C54.1053 127.59 53.1486 124.743 53.1486 121.01V94.48H61.8286V118.49C61.8286 120.963 62.3886 122.62 63.5086 123.46C64.6753 124.3 66.2386 124.72 68.1986 124.72C69.8319 124.72 71.4186 124.463 72.9586 123.95C74.4986 123.437 75.9453 122.69 77.2986 121.71V94.48H85.9786V132H78.9086L77.2986 128.08C75.5253 129.2 73.4953 130.203 71.2086 131.09C68.9686 131.977 66.5886 132.42 64.0686 132.42ZM117.603 132L91.2127 94.48H100.033L126.423 132H117.603ZM91.2127 132L105.633 110.58L108.783 118.7L100.033 132H91.2127ZM112.003 116.04L108.363 108.83L117.603 94.55L126.423 94.48L112.003 116.04ZM145.414 132C142.707 132 140.49 131.603 138.764 130.81C137.037 129.97 135.777 128.593 134.984 126.68C134.237 124.767 133.887 122.247 133.934 119.12L134.214 101.48H128.334V95.88L134.494 94.48L135.754 83.98H142.544V94.48H152.064V101.48H142.544V119.05C142.544 120.263 142.66 121.267 142.894 122.06C143.127 122.807 143.454 123.413 143.874 123.88C144.34 124.3 144.83 124.603 145.344 124.79C145.857 124.977 146.394 125.093 146.954 125.14L151.644 125.63V132H145.414ZM170.394 132C167.967 132 165.867 131.627 164.094 130.88C162.367 130.133 161.06 128.92 160.174 127.24C159.287 125.513 158.844 123.25 158.844 120.45V80.34H167.454V119.05C167.454 120.357 167.687 121.407 168.154 122.2C168.62 122.947 169.227 123.46 169.974 123.74C170.767 124.02 171.63 124.16 172.564 124.16H189.714V132H170.394ZM203.586 132.42C200.786 132.42 198.5 131.58 196.726 129.9C194.953 128.22 194.066 125.91 194.066 122.97V119.82C194.066 116.927 195.046 114.57 197.006 112.75C199.013 110.93 202.07 110.02 206.176 110.02H216.886V106.73C216.886 105.423 216.653 104.327 216.186 103.44C215.72 102.553 214.88 101.9 213.666 101.48C212.453 101.013 210.61 100.78 208.136 100.78H196.796V95.74C198.523 95.2733 200.553 94.8767 202.886 94.55C205.22 94.1767 207.996 93.99 211.216 93.99C214.296 93.9433 216.91 94.3167 219.056 95.11C221.203 95.8567 222.813 97.1167 223.886 98.89C225.006 100.663 225.566 103.09 225.566 106.17V132H218.776L217.306 127.94C216.98 128.22 216.396 128.593 215.556 129.06C214.716 129.527 213.666 130.04 212.406 130.6C211.146 131.113 209.746 131.557 208.206 131.93C206.713 132.257 205.173 132.42 203.586 132.42ZM207.786 126.33C208.393 126.33 209.07 126.26 209.816 126.12C210.61 125.933 211.403 125.747 212.196 125.56C212.99 125.327 213.713 125.117 214.366 124.93C215.066 124.697 215.626 124.487 216.046 124.3C216.513 124.113 216.793 123.997 216.886 123.95V114.15L208.766 114.57C206.62 114.757 205.056 115.317 204.076 116.25C203.143 117.183 202.676 118.42 202.676 119.96V121.5C202.676 122.667 202.91 123.623 203.376 124.37C203.89 125.07 204.52 125.56 205.266 125.84C206.06 126.12 206.9 126.283 207.786 126.33ZM233.046 132V125.7L252.086 101.48H232.416V94.48H262.166V100.78L243.056 125H262.166V132H233.046ZM280.434 148.59L284.774 132C282.954 132 281.298 131.65 279.804 130.95C278.358 130.25 277.121 129.2 276.094 127.8C275.068 126.4 274.228 124.603 273.574 122.41L265.874 94.48H274.834L281.624 120.66C281.951 121.733 282.348 122.55 282.814 123.11C283.281 123.67 283.748 124.09 284.214 124.37C284.681 124.603 285.101 124.743 285.474 124.79C285.894 124.837 286.174 124.86 286.314 124.86L294.084 94.48H302.904L290.864 141.66L287.504 148.59H280.434ZM321.986 132C319.279 132 317.062 131.603 315.336 130.81C313.609 129.97 312.349 128.593 311.556 126.68C310.809 124.767 310.459 122.247 310.506 119.12L310.786 101.48H304.906V95.88L311.066 94.48L312.326 83.98H319.116V94.48H328.636V101.48H319.116V119.05C319.116 120.263 319.232 121.267 319.466 122.06C319.699 122.807 320.026 123.413 320.446 123.88C320.912 124.3 321.402 124.603 321.916 124.79C322.429 124.977 322.966 125.093 323.526 125.14L328.216 125.63V132H321.986ZM345.846 132.42C342.393 132.42 339.709 131.463 337.796 129.55C335.883 127.59 334.926 124.743 334.926 121.01V94.48H343.606V118.49C343.606 120.963 344.166 122.62 345.286 123.46C346.453 124.3 348.016 124.72 349.976 124.72C351.609 124.72 353.196 124.463 354.736 123.95C356.276 123.437 357.723 122.69 359.076 121.71V94.48H367.756V132H360.686L359.076 128.08C357.303 129.2 355.273 130.203 352.986 131.09C350.746 131.977 348.366 132.42 345.846 132.42ZM396.65 132.42C394.97 132.42 393.43 132.233 392.03 131.86C390.677 131.44 389.44 130.927 388.32 130.32C387.2 129.667 386.15 129.013 385.17 128.36L383.7 132H376.49V78.59H385.17V97.35C386.757 96.4633 388.553 95.6933 390.56 95.04C392.613 94.34 394.503 93.99 396.23 93.99C399.403 93.99 401.97 94.6433 403.93 95.95C405.89 97.2567 407.313 99.3567 408.2 102.25C409.133 105.097 409.6 108.877 409.6 113.59C409.6 117.697 409.133 121.15 408.2 123.95C407.313 126.75 405.913 128.873 404 130.32C402.133 131.72 399.683 132.42 396.65 132.42ZM393.5 125.35C395.04 125.35 396.347 124.953 397.42 124.16C398.54 123.367 399.403 122.083 400.01 120.31C400.617 118.537 400.92 116.157 400.92 113.17C400.92 109.623 400.593 106.987 399.94 105.26C399.287 103.533 398.4 102.39 397.28 101.83C396.16 101.27 394.9 100.99 393.5 100.99C391.867 100.99 390.373 101.247 389.02 101.76C387.667 102.227 386.383 102.787 385.17 103.44V123.04C386.243 123.6 387.457 124.137 388.81 124.65C390.21 125.117 391.773 125.35 393.5 125.35ZM432.631 132.35C428.571 132.35 425.327 131.79 422.901 130.67C420.521 129.55 418.794 127.613 417.721 124.86C416.647 122.06 416.111 118.187 416.111 113.24C416.111 108.2 416.624 104.303 417.651 101.55C418.677 98.75 420.381 96.79 422.761 95.67C425.141 94.55 428.361 93.99 432.421 93.99C436.014 93.99 438.884 94.3633 441.031 95.11C443.224 95.81 444.811 97.0933 445.791 98.96C446.817 100.78 447.331 103.37 447.331 106.73C447.331 109.11 446.864 111.023 445.931 112.47C444.997 113.87 443.644 114.873 441.871 115.48C440.144 116.087 438.091 116.39 435.711 116.39H424.721C424.814 118.723 425.117 120.59 425.631 121.99C426.191 123.343 427.171 124.323 428.571 124.93C430.017 125.537 432.117 125.84 434.871 125.84H446.211V130.95C444.297 131.323 442.267 131.65 440.121 131.93C438.021 132.21 435.524 132.35 432.631 132.35ZM424.651 111.14H434.871C436.504 111.14 437.694 110.837 438.441 110.23C439.234 109.577 439.631 108.41 439.631 106.73C439.631 105.097 439.397 103.813 438.931 102.88C438.464 101.947 437.694 101.293 436.621 100.92C435.547 100.5 434.147 100.29 432.421 100.29C430.461 100.29 428.921 100.593 427.801 101.2C426.681 101.807 425.864 102.903 425.351 104.49C424.884 106.03 424.651 108.247 424.651 111.14Z" fill="url(#paint0_linear_2245_17)"/>
<rect x="188" y="3" width="75" height="47" fill="white" stroke="url(#paint1_linear_2245_17)" stroke-width="6"/>
<path d="M240.108 27.0413L217.495 40.0651L217.978 13.2114L240.108 27.0413Z" fill="url(#paint2_linear_2245_17)"/>
<defs>
<linearGradient id="paint0_linear_2245_17" x1="225.5" y1="62" x2="225.5" y2="155" gradientUnits="userSpaceOnUse">
<stop stop-color="#00DC82"/>
<stop offset="0.9998" stop-color="#020420"/>
<stop offset="0.9999" stop-color="#D71FCF"/>
</linearGradient>
<linearGradient id="paint1_linear_2245_17" x1="225.5" y1="0" x2="225.5" y2="53" gradientUnits="userSpaceOnUse">
<stop stop-color="#00DC82"/>
<stop offset="1" stop-color="#020420"/>
</linearGradient>
<linearGradient id="paint2_linear_2245_17" x1="232.5" y1="16" x2="210.279" y2="26.5039" gradientUnits="userSpaceOnUse">
<stop stop-color="#00DC82"/>
<stop offset="1" stop-color="#DA30BF"/>
</linearGradient>
</defs>
</svg>
