<svg width="684" height="180" viewBox="0 0 684 180" fill="none" xmlns="http://www.w3.org/2000/svg">
<path d="M34.944 138.512C30.5067 138.512 26.5813 137.829 23.168 136.464C19.7547 135.013 16.896 132.581 14.592 129.168C12.288 125.669 10.496 120.891 9.216 114.832C8.02133 108.688 7.424 100.923 7.424 91.536C7.424 82.576 8.192 74.9813 9.728 68.752C11.3493 62.5227 13.6533 57.488 16.64 53.648C19.6267 49.808 23.2533 47.0347 27.52 45.328C31.872 43.6213 36.8213 42.768 42.368 42.768C46.2933 42.768 50.3893 42.9387 54.656 43.28C59.008 43.536 62.848 43.9627 66.176 44.56V56.976H43.52C36.864 56.976 31.8293 59.28 28.416 63.888C25.0027 68.4107 23.296 75.1947 23.296 84.24C25.5147 83.728 27.8613 83.344 30.336 83.088C32.896 82.7467 35.4987 82.5333 38.144 82.448C40.8747 82.3627 43.6053 82.32 46.336 82.32C52.3947 82.32 57.3013 83.1307 61.056 84.752C64.8107 86.288 67.5413 88.6347 69.248 91.792C70.9547 94.9493 71.808 98.7893 71.808 103.312V116.752C71.808 122.043 70.8267 126.267 68.864 129.424C66.9013 132.581 64.1707 134.885 60.672 136.336C57.2587 137.787 53.376 138.512 49.024 138.512H34.944ZM38.016 124.304H45.568C47.616 124.304 49.408 124.005 50.944 123.408C52.5653 122.725 53.8027 121.616 54.656 120.08C55.5947 118.544 56.064 116.453 56.064 113.808V106.256C56.064 103.355 55.552 101.179 54.528 99.728C53.504 98.192 51.9253 97.168 49.792 96.656C47.744 96.0587 45.184 95.76 42.112 95.76H23.296C23.296 101.477 23.5947 106.171 24.192 109.84C24.7893 113.509 25.6853 116.411 26.88 118.544C28.16 120.677 29.696 122.171 31.488 123.024C33.3653 123.877 35.5413 124.304 38.016 124.304ZM120.832 138V43.536H159.872C166.016 43.536 171.136 44.6453 175.232 46.864C179.413 48.9973 182.741 52.1547 185.216 56.336C187.691 60.432 189.44 65.3813 190.464 71.184C191.573 76.9867 192.128 83.5147 192.128 90.768C192.128 101.179 190.933 109.883 188.544 116.88C186.155 123.792 182.571 129.04 177.792 132.624C173.013 136.208 167.04 138 159.872 138H120.832ZM136.576 123.792H158.336C162.688 123.792 166.144 122.512 168.704 119.952C171.349 117.392 173.269 113.637 174.464 108.688C175.744 103.739 176.384 97.7653 176.384 90.768C176.384 84.2827 176 78.9067 175.232 74.64C174.464 70.3733 173.355 67.0027 171.904 64.528C170.453 62.0533 168.576 60.304 166.272 59.28C164.053 58.256 161.408 57.744 158.336 57.744H136.576V123.792ZM206.564 138V69.392H218.852L222.436 80.4C225.167 77.072 228.196 74.256 231.524 71.952C234.852 69.648 238.82 68.496 243.428 68.496C244.367 68.496 245.348 68.5813 246.372 68.752C247.396 68.8373 248.335 69.008 249.188 69.264V85.392C247.993 85.2213 246.713 85.0933 245.348 85.008C243.983 84.9227 242.66 84.88 241.38 84.88C238.735 84.88 236.303 85.1787 234.084 85.776C231.951 86.3733 229.945 87.312 228.068 88.592C226.191 89.7867 224.313 91.3227 222.436 93.2V138H206.564ZM288.861 138.64C283.485 138.64 278.834 138.085 274.909 136.976C270.984 135.867 267.784 133.989 265.309 131.344C262.834 128.699 261 125.115 259.805 120.592C258.61 116.069 258.013 110.395 258.013 103.568C258.013 96.4853 258.61 90.6827 259.805 86.16C261 81.552 262.834 77.968 265.309 75.408C267.869 72.7627 271.112 70.9707 275.037 70.032C278.962 69.008 283.57 68.496 288.861 68.496C294.322 68.496 299.016 69.0507 302.941 70.16C306.866 71.184 310.066 72.976 312.541 75.536C315.016 78.096 316.85 81.68 318.045 86.288C319.24 90.8107 319.837 96.5707 319.837 103.568C319.837 110.48 319.24 116.24 318.045 120.848C316.936 125.371 315.144 128.955 312.669 131.6C310.194 134.16 306.994 135.995 303.069 137.104C299.144 138.128 294.408 138.64 288.861 138.64ZM288.861 125.968C291.506 125.968 293.768 125.755 295.645 125.328C297.522 124.816 299.058 123.835 300.253 122.384C301.533 120.848 302.472 118.587 303.069 115.6C303.666 112.528 303.965 108.475 303.965 103.44C303.965 98.4907 303.666 94.5227 303.069 91.536C302.472 88.5493 301.533 86.3307 300.253 84.88C299.058 83.344 297.522 82.3627 295.645 81.936C293.768 81.424 291.506 81.168 288.861 81.168C286.301 81.168 284.082 81.424 282.205 81.936C280.328 82.3627 278.792 83.344 277.597 84.88C276.402 86.3307 275.464 88.5493 274.781 91.536C274.184 94.5227 273.885 98.4907 273.885 103.44C273.885 108.475 274.184 112.528 274.781 115.6C275.464 118.587 276.402 120.848 277.597 122.384C278.792 123.835 280.328 124.816 282.205 125.328C284.082 125.755 286.301 125.968 288.861 125.968ZM333.939 168.336V69.392H347.123L349.811 76.176C351.432 74.896 353.31 73.6587 355.443 72.464C357.576 71.2693 359.88 70.3307 362.355 69.648C364.83 68.88 367.39 68.496 370.035 68.496C374.387 68.496 378.099 69.3493 381.171 71.056C384.328 72.7627 386.888 75.1947 388.851 78.352C390.814 81.424 392.222 85.136 393.075 89.488C394.014 93.7547 394.483 98.4907 394.483 103.696C394.483 111.205 393.672 117.605 392.051 122.896C390.515 128.101 387.955 132.069 384.371 134.8C380.872 137.531 376.094 138.896 370.035 138.896C366.622 138.896 363.123 138.427 359.539 137.488C356.04 136.549 352.798 135.312 349.811 133.776V168.336H333.939ZM365.043 125.84C367.518 125.84 369.779 125.2 371.827 123.92C373.875 122.555 375.496 120.293 376.691 117.136C377.971 113.979 378.611 109.499 378.611 103.696C378.611 98.1493 378.014 93.712 376.819 90.384C375.624 87.056 374.003 84.7093 371.955 83.344C369.992 81.9787 367.731 81.296 365.171 81.296C362.014 81.296 359.155 81.808 356.595 82.832C354.035 83.7707 351.774 84.752 349.811 85.776V121.616C352.03 122.896 354.462 123.92 357.107 124.688C359.752 125.456 362.398 125.84 365.043 125.84ZM406.516 138V126.48L441.332 82.192H405.364V69.392H459.764V80.912L424.82 125.2H459.764V138H406.516ZM501.361 138.64C495.985 138.64 491.334 138.085 487.409 136.976C483.484 135.867 480.284 133.989 477.809 131.344C475.334 128.699 473.5 125.115 472.305 120.592C471.11 116.069 470.513 110.395 470.513 103.568C470.513 96.4853 471.11 90.6827 472.305 86.16C473.5 81.552 475.334 77.968 477.809 75.408C480.369 72.7627 483.612 70.9707 487.537 70.032C491.462 69.008 496.07 68.496 501.361 68.496C506.822 68.496 511.516 69.0507 515.441 70.16C519.366 71.184 522.566 72.976 525.041 75.536C527.516 78.096 529.35 81.68 530.545 86.288C531.74 90.8107 532.337 96.5707 532.337 103.568C532.337 110.48 531.74 116.24 530.545 120.848C529.436 125.371 527.644 128.955 525.169 131.6C522.694 134.16 519.494 135.995 515.569 137.104C511.644 138.128 506.908 138.64 501.361 138.64ZM501.361 125.968C504.006 125.968 506.268 125.755 508.145 125.328C510.022 124.816 511.558 123.835 512.753 122.384C514.033 120.848 514.972 118.587 515.569 115.6C516.166 112.528 516.465 108.475 516.465 103.44C516.465 98.4907 516.166 94.5227 515.569 91.536C514.972 88.5493 514.033 86.3307 512.753 84.88C511.558 83.344 510.022 82.3627 508.145 81.936C506.268 81.424 504.006 81.168 501.361 81.168C498.801 81.168 496.582 81.424 494.705 81.936C492.828 82.3627 491.292 83.344 490.097 84.88C488.902 86.3307 487.964 88.5493 487.281 91.536C486.684 94.5227 486.385 98.4907 486.385 103.44C486.385 108.475 486.684 112.528 487.281 115.6C487.964 118.587 488.902 120.848 490.097 122.384C491.292 123.835 492.828 124.816 494.705 125.328C496.582 125.755 498.801 125.968 501.361 125.968ZM546.439 138V69.392H559.367L562.311 76.56C565.127 74.4267 568.54 72.5067 572.551 70.8C576.647 69.0933 580.871 68.24 585.223 68.24C590.599 68.24 594.823 69.3493 597.895 71.568C600.967 73.7013 603.143 76.6027 604.423 80.272C605.788 83.9413 606.471 87.952 606.471 92.304V138H590.599V94.224C590.599 91.7493 590.13 89.6587 589.191 87.952C588.252 86.2453 586.93 84.9227 585.223 83.984C583.602 83.0453 581.596 82.576 579.207 82.576C576.988 82.576 574.898 82.7893 572.935 83.216C571.058 83.6427 569.266 84.2827 567.559 85.136C565.852 85.9893 564.103 87.0133 562.311 88.208V138H546.439ZM650.346 138.64C642.922 138.64 636.991 137.616 632.554 135.568C628.202 133.52 625.045 129.979 623.082 124.944C621.119 119.824 620.138 112.741 620.138 103.696C620.138 94.48 621.077 87.3547 622.954 82.32C624.831 77.2 627.946 73.616 632.298 71.568C636.65 69.52 642.538 68.496 649.962 68.496C656.533 68.496 661.781 69.1787 665.706 70.544C669.717 71.824 672.618 74.1707 674.41 77.584C676.287 80.912 677.226 85.648 677.226 91.792C677.226 96.144 676.373 99.6427 674.666 102.288C672.959 104.848 670.485 106.683 667.242 107.792C664.085 108.901 660.33 109.456 655.978 109.456H635.882C636.053 113.723 636.607 117.136 637.546 119.696C638.57 122.171 640.362 123.963 642.922 125.072C645.567 126.181 649.407 126.736 654.442 126.736H675.178V136.08C671.679 136.763 667.967 137.36 664.042 137.872C660.202 138.384 655.637 138.64 650.346 138.64ZM635.754 99.856H654.442C657.429 99.856 659.605 99.3013 660.97 98.192C662.421 96.9973 663.146 94.864 663.146 91.792C663.146 88.8053 662.719 86.4587 661.866 84.752C661.013 83.0453 659.605 81.8507 657.642 81.168C655.679 80.4 653.119 80.016 649.962 80.016C646.378 80.016 643.562 80.5707 641.514 81.68C639.466 82.7893 637.973 84.7947 637.034 87.696C636.181 90.512 635.754 94.5653 635.754 99.856Z" fill="url(#paint0_linear_2243_22)"/>
<rect x="319" y="3" width="75" height="47" fill="white" stroke="url(#paint1_linear_2243_22)" stroke-width="6"/>
<rect x="301" y="15" width="46" height="24" fill="white" stroke="url(#paint2_linear_2243_22)" stroke-width="6"/>
<defs>
<linearGradient id="paint0_linear_2243_22" x1="342" y1="10" x2="342" y2="180" gradientUnits="userSpaceOnUse">
<stop stop-color="#FFE710"/>
<stop offset="0.9999" stop-color="#D71FCF"/>
<stop offset="1" stop-color="white" stop-opacity="0"/>
</linearGradient>
<linearGradient id="paint1_linear_2243_22" x1="356.5" y1="0" x2="356.5" y2="53" gradientUnits="userSpaceOnUse">
<stop stop-color="#F19F56"/>
<stop offset="1" stop-color="#DA30BF"/>
</linearGradient>
<linearGradient id="paint2_linear_2243_22" x1="324" y1="12" x2="324" y2="42" gradientUnits="userSpaceOnUse">
<stop stop-color="#F19F56"/>
<stop offset="1" stop-color="#DA30BF"/>
</linearGradient>
</defs>
</svg>
